<svg xmlns="http://www.w3.org/2000/svg" viewBox="0 0 24 24" width="24" height="24" color="#000000" fill="none">
    <defs />
    <path fill="currentColor" d="M20.25,8.256 C18.475,9.17 15.193,10.59 10.75,10.736 L10.75,18.499 C10.75,20.846 8.847,22.749 6.5,22.749 C4.153,22.749 2.25,20.846 2.25,18.499 C2.25,16.152 4.153,14.249 6.5,14.249 C7.549,14.249 8.509,14.629 9.25,15.258 L9.25,10.002 L9.25,9.999 L9.25,9.996 L9.25,6.999 L9.25,6.957 L9.25,6.957 C9.25,6.531 9.25,6.145 9.289,5.832 C9.33,5.493 9.429,5.127 9.711,4.819 C10,4.505 10.372,4.379 10.712,4.309 C11.033,4.244 11.439,4.209 11.894,4.17 L11.935,4.167 C15.828,3.835 18.608,2.566 19.975,1.762 L20.001,1.746 C20.125,1.674 20.276,1.585 20.41,1.529 C20.541,1.474 20.899,1.341 21.272,1.554 C21.64,1.765 21.71,2.134 21.73,2.278 C21.75,2.422 21.75,2.594 21.75,2.733 L21.75,2.734 L21.75,6.984 Q21.75,6.998 21.75,7.012 L21.75,15.999 C21.75,18.07 20.071,19.749 18,19.749 C15.929,19.749 14.25,18.07 14.25,15.999 C14.25,13.928 15.929,12.249 18,12.249 C18.844,12.249 19.623,12.528 20.25,12.998 Z M20.25,6.556 L20.25,3.328 C18.618,4.206 15.813,5.342 12.062,5.662 C11.553,5.705 11.237,5.733 11.012,5.779 C10.891,5.804 10.836,5.827 10.816,5.837 C10.807,5.857 10.791,5.908 10.777,6.016 C10.751,6.226 10.75,6.518 10.75,6.999 L10.75,9.236 C15.498,9.068 18.807,7.348 20.25,6.556 Z M3.75,18.499 C3.75,20.017 4.981,21.249 6.5,21.249 C8.019,21.249 9.25,20.017 9.25,18.499 C9.25,16.98 8.019,15.749 6.5,15.749 C4.981,15.749 3.75,16.98 3.75,18.499 Z M15.75,15.999 C15.75,17.241 16.757,18.249 18,18.249 C19.243,18.249 20.25,17.241 20.25,15.999 C20.25,14.756 19.243,13.749 18,13.749 C16.757,13.749 15.75,14.756 15.75,15.999 Z M10.821,5.826 L10.818,5.831 C10.821,5.828 10.822,5.826 10.821,5.826 Z M10.809,5.841 L10.806,5.843 L10.805,5.843 Z" />
</svg>