<svg xmlns="http://www.w3.org/2000/svg" viewBox="0 0 24 24" width="24" height="24" color="#000000" fill="none">
    <defs />
    <path fill="currentColor" d="M11.5,3.25 C6.391,3.25 2.25,7.391 2.25,12.5 C2.25,17.609 6.391,21.75 11.5,21.75 C16.609,21.75 20.75,17.609 20.75,12.5 C20.75,12.086 21.086,11.75 21.5,11.75 C21.914,11.75 22.25,12.086 22.25,12.5 C22.25,18.437 17.437,23.25 11.5,23.25 C5.563,23.25 0.75,18.437 0.75,12.5 C0.75,6.563 5.563,1.75 11.5,1.75 C12.755,1.75 13.962,1.965 15.083,2.362 C15.474,2.5 15.679,2.928 15.54,3.319 C15.402,3.71 14.974,3.914 14.583,3.776 C13.62,3.436 12.583,3.25 11.5,3.25 Z M19.283,0.782 C19.599,0.686 19.941,0.809 20.124,1.084 C20.21,1.213 20.274,1.36 20.319,1.469 C20.347,1.536 20.379,1.619 20.411,1.7 L20.411,1.701 C20.431,1.751 20.451,1.801 20.468,1.845 C20.572,2.104 20.691,2.374 20.857,2.633 C21.171,3.124 21.668,3.601 22.623,3.76 C23.032,3.828 23.308,4.215 23.24,4.623 C23.172,5.032 22.785,5.308 22.377,5.24 C21.434,5.083 20.751,4.699 20.25,4.234 L20.25,9 C20.25,10.795 18.795,12.25 17,12.25 C15.205,12.25 13.75,10.795 13.75,9 C13.75,7.205 15.205,5.75 17,5.75 C17.644,5.75 18.245,5.938 18.75,6.261 L18.75,1.5 C18.75,1.17 18.966,0.878 19.283,0.782 Z M11.5,14.75 C10.257,14.75 9.25,13.743 9.25,12.5 C9.25,11.257 10.257,10.25 11.5,10.25 C12.743,10.25 13.75,11.257 13.75,12.5 C13.75,13.743 12.743,14.75 11.5,14.75 Z M18.75,9 C18.75,8.034 17.966,7.25 17,7.25 C16.034,7.25 15.25,8.034 15.25,9 C15.25,9.967 16.034,10.75 17,10.75 C17.966,10.75 18.75,9.967 18.75,9 Z M10.75,12.5 C10.75,12.914 11.086,13.25 11.5,13.25 C11.914,13.25 12.25,12.914 12.25,12.5 C12.25,12.086 11.914,11.75 11.5,11.75 C11.086,11.75 10.75,12.086 10.75,12.5 Z" />
</svg>